# xmcd
#
# Track frame offsets:
#	150
#	15748
#	26936
#	39117
#	55555
#	68314
#	81639
#	98169
#	111112
#	126870
#	141224
#	154892
#	171113
#
# Disc length: 2471 seconds
#
# Revision: 0
# Processed by: cddbd v1.5.2PL0 Copyright (c) Steve Scherf et al.
# Submitted via: audiograbber 1.83.01
#
DISCID=a409a50d
DTITLE=Blue Highway - Wondrous Love
DYEAR=1900
DGENRE=Bluegrass
TTITLE0=Wondrous Love
TTITLE1=Traveling Preacher
TTITLE2=Wicked Path of Sin
TTITLE3=I´m Asking You
TTITLE4=Live on downthe Line
TTITLE5=Chasing after the wind
TTITLE6=Seven Sundays in a row
TTITLE7=This World is not my home
TTITLE8=Ahead of the storm
TTITLE9=Old Brush Arbors
TTITLE10=The Ground is Level at the Footof the Cross
TTITLE11=It won´t be Long
TTITLE12=The old Rugged Cross
EXTD=
EXTT0=
EXTT1=
EXTT2=
EXTT3=
EXTT4=
EXTT5=
EXTT6=
EXTT7=
EXTT8=
EXTT9=
EXTT10=
EXTT11=
EXTT12=
PLAYORDER=
